<svg width="30" height="30" viewBox="0 0 30 30" fill="none" xmlns="http://www.w3.org/2000/svg">
<path d="M5 22.7V20.5H7.5V12.8C7.5 11.2783 8.02083 9.92625 9.0625 8.74375C10.1042 7.56125 11.4583 6.78667 13.125 6.42V5.65C13.125 5.19167 13.3073 4.80208 13.6719 4.48125C14.0365 4.16042 14.4792 4 15 4C15.5208 4 15.9635 4.16042 16.3281 4.48125C16.6927 4.80208 16.875 5.19167 16.875 5.65V6.42C18.5417 6.78667 19.8958 7.56125 20.9375 8.74375C21.9792 9.92625 22.5 11.2783 22.5 12.8V20.5H25V22.7H5ZM15 26C14.3125 26 13.724 25.7846 13.2344 25.3538C12.7448 24.9229 12.5 24.405 12.5 23.8H17.5C17.5 24.405 17.2552 24.9229 16.7656 25.3538C16.276 25.7846 15.6875 26 15 26ZM10 20.5H20V12.8C20 11.59 19.5104 10.5542 18.5312 9.6925C17.5521 8.83083 16.375 8.4 15 8.4C13.625 8.4 12.4479 8.83083 11.4688 9.6925C10.4896 10.5542 10 11.59 10 12.8V20.5Z" fill="#FF9934"/>
<rect x="20" width="10" height="10" rx="5" fill="#FF4D4F"/>
</svg>
