<svg width="30" height="30" viewBox="0 0 30 30" fill="none" xmlns="http://www.w3.org/2000/svg">
<path d="M5 25V9.44444H9.44444V5H20.5556V13.8889H25V25H16.1111V20.5556H13.8889V25H5ZM7.22222 22.7778H9.44444V20.5556H7.22222V22.7778ZM7.22222 18.3333H9.44444V16.1111H7.22222V18.3333ZM7.22222 13.8889H9.44444V11.6667H7.22222V13.8889ZM11.6667 18.3333H13.8889V16.1111H11.6667V18.3333ZM11.6667 13.8889H13.8889V11.6667H11.6667V13.8889ZM11.6667 9.44444H13.8889V7.22222H11.6667V9.44444ZM16.1111 18.3333H18.3333V16.1111H16.1111V18.3333ZM16.1111 13.8889H18.3333V11.6667H16.1111V13.8889ZM16.1111 9.44444H18.3333V7.22222H16.1111V9.44444ZM20.5556 22.7778H22.7778V20.5556H20.5556V22.7778ZM20.5556 18.3333H22.7778V16.1111H20.5556V18.3333Z" fill="#FF9934"/>
</svg>
