<svg width="325" height="66" viewBox="0 0 325 66" fill="none" xmlns="http://www.w3.org/2000/svg">
<path d="M0.821733 13V3.54545H4.55185C5.26894 3.54545 5.87985 3.68241 6.38459 3.95632C6.88932 4.22715 7.27403 4.60417 7.53871 5.08736C7.80646 5.56747 7.94034 6.12145 7.94034 6.74929C7.94034 7.37713 7.80492 7.93111 7.53409 8.41122C7.26326 8.89133 6.87086 9.26527 6.35689 9.53303C5.846 9.80078 5.22739 9.93466 4.50107 9.93466H2.12358V8.33274H4.17791C4.56262 8.33274 4.87962 8.26657 5.12891 8.13423C5.38127 7.99882 5.56901 7.81262 5.69212 7.57564C5.8183 7.33558 5.88139 7.06013 5.88139 6.74929C5.88139 6.43537 5.8183 6.16146 5.69212 5.92756C5.56901 5.69058 5.38127 5.50746 5.12891 5.3782C4.87654 5.24586 4.55646 5.17969 4.16868 5.17969H2.82067V13H0.821733ZM11.0334 13.1339C10.581 13.1339 10.1778 13.0554 9.82386 12.8984C9.46993 12.7384 9.18987 12.503 8.98366 12.1921C8.78054 11.8782 8.67898 11.4873 8.67898 11.0195C8.67898 10.6256 8.7513 10.2947 8.89595 10.027C9.0406 9.75923 9.23757 9.5438 9.48686 9.38068C9.73615 9.21757 10.0193 9.09446 10.3363 9.01136C10.6564 8.92827 10.9918 8.86979 11.3427 8.83594C11.7551 8.79285 12.0875 8.75284 12.3398 8.71591C12.5922 8.6759 12.7753 8.61742 12.8892 8.54048C13.0031 8.46354 13.06 8.34967 13.06 8.19886V8.17116C13.06 7.87879 12.9677 7.65258 12.783 7.49254C12.6014 7.3325 12.3429 7.25249 12.0075 7.25249C11.6535 7.25249 11.3719 7.33097 11.1626 7.48793C10.9534 7.64181 10.8149 7.8357 10.7472 8.0696L8.92827 7.92188C9.0206 7.491 9.20218 7.11861 9.47301 6.80469C9.74384 6.48769 10.0932 6.24455 10.521 6.07528C10.9518 5.90294 11.4504 5.81676 12.0167 5.81676C12.4106 5.81676 12.7876 5.86293 13.1477 5.95526C13.5109 6.04759 13.8325 6.1907 14.1126 6.38459C14.3957 6.57848 14.6188 6.82777 14.782 7.13246C14.9451 7.43407 15.0266 7.79569 15.0266 8.21733V13H13.1616V12.0167H13.1062C12.9923 12.2383 12.84 12.4337 12.6491 12.603C12.4583 12.7692 12.229 12.9 11.9613 12.9954C11.6935 13.0877 11.3842 13.1339 11.0334 13.1339ZM11.5966 11.7766C11.8859 11.7766 12.1413 11.7197 12.3629 11.6058C12.5845 11.4889 12.7584 11.3319 12.8846 11.1349C13.0108 10.938 13.0739 10.7148 13.0739 10.4656V9.71307C13.0123 9.75308 12.9277 9.79001 12.82 9.82386C12.7153 9.85464 12.5968 9.88388 12.4645 9.91158C12.3321 9.9362 12.1998 9.95928 12.0675 9.98082C11.9351 9.99929 11.8151 10.0162 11.7074 10.0316C11.4766 10.0655 11.275 10.1193 11.1026 10.1932C10.9303 10.267 10.7964 10.3671 10.701 10.4933C10.6056 10.6164 10.5579 10.7702 10.5579 10.9549C10.5579 11.2227 10.6548 11.4273 10.8487 11.5689C11.0457 11.7074 11.295 11.7766 11.5966 11.7766ZM22.4522 7.93111L20.6518 8.0419C20.621 7.88802 20.5549 7.74953 20.4533 7.62642C20.3517 7.50024 20.2179 7.40021 20.0517 7.32635C19.8886 7.24941 19.6931 7.21094 19.4654 7.21094C19.1607 7.21094 18.9037 7.27557 18.6944 7.40483C18.4851 7.53101 18.3805 7.70028 18.3805 7.91264C18.3805 8.08191 18.4482 8.22502 18.5836 8.34197C18.719 8.45893 18.9514 8.55279 19.2807 8.62358L20.5641 8.8821C21.2535 9.02367 21.7675 9.25142 22.106 9.56534C22.4445 9.87926 22.6138 10.2917 22.6138 10.8026C22.6138 11.2673 22.4769 11.6751 22.2029 12.0259C21.9321 12.3768 21.5597 12.6507 21.0858 12.8477C20.6149 13.0415 20.0717 13.1385 19.4561 13.1385C18.5175 13.1385 17.7696 12.9431 17.2125 12.5522C16.6586 12.1583 16.3339 11.6228 16.2385 10.9457L18.1728 10.8441C18.2312 11.1303 18.3728 11.3488 18.5975 11.4996C18.8221 11.6474 19.1099 11.7212 19.4608 11.7212C19.8055 11.7212 20.0824 11.6551 20.2917 11.5227C20.5041 11.3873 20.6118 11.2134 20.6149 11.0011C20.6118 10.8226 20.5364 10.6764 20.3887 10.5625C20.2409 10.4455 20.0132 10.3563 19.7054 10.2947L18.4775 10.0501C17.785 9.91158 17.2695 9.67152 16.9309 9.3299C16.5955 8.98828 16.4277 8.55279 16.4277 8.02344C16.4277 7.56794 16.5508 7.17554 16.7971 6.84624C17.0463 6.51693 17.3957 6.26302 17.845 6.08452C18.2974 5.90601 18.8268 5.81676 19.4331 5.81676C20.3287 5.81676 21.0334 6.00604 21.5474 6.38459C22.0645 6.76314 22.3661 7.27865 22.4522 7.93111ZM29.752 7.93111L27.9516 8.0419C27.9208 7.88802 27.8547 7.74953 27.7531 7.62642C27.6515 7.50024 27.5177 7.40021 27.3515 7.32635C27.1884 7.24941 26.9929 7.21094 26.7652 7.21094C26.4605 7.21094 26.2035 7.27557 25.9942 7.40483C25.7849 7.53101 25.6803 7.70028 25.6803 7.91264C25.6803 8.08191 25.748 8.22502 25.8834 8.34197C26.0189 8.45893 26.2512 8.55279 26.5805 8.62358L27.8639 8.8821C28.5533 9.02367 29.0673 9.25142 29.4058 9.56534C29.7443 9.87926 29.9136 10.2917 29.9136 10.8026C29.9136 11.2673 29.7767 11.6751 29.5028 12.0259C29.2319 12.3768 28.8595 12.6507 28.3856 12.8477C27.9147 13.0415 27.3715 13.1385 26.7559 13.1385C25.8173 13.1385 25.0694 12.9431 24.5123 12.5522C23.9584 12.1583 23.6337 11.6228 23.5383 10.9457L25.4726 10.8441C25.531 11.1303 25.6726 11.3488 25.8973 11.4996C26.122 11.6474 26.4097 11.7212 26.7606 11.7212C27.1053 11.7212 27.3823 11.6551 27.5915 11.5227C27.8039 11.3873 27.9116 11.2134 27.9147 11.0011C27.9116 10.8226 27.8362 10.6764 27.6885 10.5625C27.5407 10.4455 27.313 10.3563 27.0052 10.2947L25.7773 10.0501C25.0848 9.91158 24.5693 9.67152 24.2307 9.3299C23.8953 8.98828 23.7275 8.55279 23.7275 8.02344C23.7275 7.56794 23.8506 7.17554 24.0969 6.84624C24.3461 6.51693 24.6955 6.26302 25.1448 6.08452C25.5972 5.90601 26.1266 5.81676 26.7329 5.81676C27.6285 5.81676 28.3332 6.00604 28.8472 6.38459C29.3643 6.76314 29.6659 7.27865 29.752 7.93111ZM32.5508 13L30.6211 5.90909H32.6108L33.7095 10.6733H33.7741L34.919 5.90909H36.8718L38.0352 10.6456H38.0952L39.1754 5.90909H41.1605L39.2354 13H37.1534L35.9347 8.54048H35.8469L34.6282 13H32.5508ZM45.2357 13.1385C44.5186 13.1385 43.8985 12.9862 43.3753 12.6815C42.8551 12.3737 42.4535 11.9459 42.1704 11.3981C41.8872 10.8472 41.7456 10.2086 41.7456 9.48224C41.7456 8.74976 41.8872 8.10961 42.1704 7.56179C42.4535 7.01089 42.8551 6.5831 43.3753 6.27841C43.8985 5.97064 44.5186 5.81676 45.2357 5.81676C45.9528 5.81676 46.5714 5.97064 47.0915 6.27841C47.6147 6.5831 48.0179 7.01089 48.301 7.56179C48.5842 8.10961 48.7258 8.74976 48.7258 9.48224C48.7258 10.2086 48.5842 10.8472 48.301 11.3981C48.0179 11.9459 47.6147 12.3737 47.0915 12.6815C46.5714 12.9862 45.9528 13.1385 45.2357 13.1385ZM45.2449 11.6151C45.5712 11.6151 45.8435 11.5227 46.0621 11.3381C46.2806 11.1503 46.4452 10.8949 46.556 10.5717C46.6699 10.2486 46.7268 9.8808 46.7268 9.46839C46.7268 9.05599 46.6699 8.68821 46.556 8.36506C46.4452 8.0419 46.2806 7.78646 46.0621 7.59872C45.8435 7.41098 45.5712 7.31712 45.2449 7.31712C44.9156 7.31712 44.6386 7.41098 44.414 7.59872C44.1924 7.78646 44.0247 8.0419 43.9108 8.36506C43.8 8.68821 43.7446 9.05599 43.7446 9.46839C43.7446 9.8808 43.8 10.2486 43.9108 10.5717C44.0247 10.8949 44.1924 11.1503 44.414 11.3381C44.6386 11.5227 44.9156 11.6151 45.2449 11.6151ZM50.0045 13V5.90909H51.9111V7.14631H51.985C52.1143 6.7062 52.3312 6.37382 52.6359 6.14915C52.9406 5.9214 53.2915 5.80753 53.6885 5.80753C53.787 5.80753 53.8931 5.81368 54.007 5.82599C54.1209 5.8383 54.2209 5.85523 54.3071 5.87678V7.6218C54.2148 7.5941 54.087 7.56948 53.9239 7.54794C53.7608 7.5264 53.6115 7.51562 53.4761 7.51562C53.1868 7.51562 52.9283 7.57872 52.7006 7.7049C52.4759 7.82801 52.2974 8.00035 52.165 8.22195C52.0358 8.44354 51.9711 8.69898 51.9711 8.98828V13H50.0045ZM57.6067 13.1154C57.0681 13.1154 56.5803 12.9769 56.1433 12.6999C55.7093 12.4199 55.3646 12.009 55.1092 11.4673C54.8568 10.9226 54.7306 10.2547 54.7306 9.46378C54.7306 8.65128 54.8614 7.97573 55.123 7.43714C55.3846 6.89548 55.7324 6.49077 56.1664 6.22301C56.6034 5.95218 57.082 5.81676 57.6021 5.81676C57.9991 5.81676 58.33 5.88447 58.5946 6.01989C58.8624 6.15223 59.0778 6.31842 59.2409 6.51847C59.4071 6.71544 59.5333 6.90933 59.6195 7.10014H59.6795V3.54545H61.6415V13H59.7026V11.8643H59.6195C59.5272 12.0613 59.3964 12.2567 59.2271 12.4506C59.0609 12.6415 58.8439 12.8 58.5762 12.9261C58.3115 13.0523 57.9883 13.1154 57.6067 13.1154ZM58.2299 11.5504C58.5469 11.5504 58.8147 11.4643 59.0332 11.2919C59.2548 11.1165 59.4241 10.8718 59.541 10.5579C59.661 10.244 59.7211 9.87618 59.7211 9.45455C59.7211 9.03291 59.6626 8.66667 59.5456 8.35582C59.4287 8.04498 59.2594 7.80492 59.0378 7.63565C58.8162 7.46638 58.5469 7.38175 58.2299 7.38175C57.9068 7.38175 57.6344 7.46946 57.4128 7.64489C57.1912 7.82031 57.0235 8.06345 56.9096 8.37429C56.7958 8.68513 56.7388 9.04522 56.7388 9.45455C56.7388 9.86695 56.7958 10.2317 56.9096 10.5487C57.0266 10.8626 57.1943 11.1088 57.4128 11.2873C57.6344 11.4627 57.9068 11.5504 58.2299 11.5504ZM67.5148 8.27273C67.5148 7.10937 67.6656 6.03989 67.9672 5.06428C68.2719 4.08558 68.7059 3.18537 69.2691 2.36364H70.2293C70.0077 2.66832 69.8 3.0438 69.6061 3.49006C69.4153 3.93324 69.2475 4.42105 69.1029 4.95348C68.9582 5.48284 68.8444 6.03066 68.7613 6.59695C68.6813 7.16323 68.6412 7.72183 68.6412 8.27273C68.6412 9.00521 68.712 9.74846 68.8536 10.5025C68.9952 11.2565 69.186 11.9567 69.426 12.603C69.6661 13.2493 69.9339 13.7756 70.2293 14.1818H69.2691C68.7059 13.3601 68.2719 12.4614 67.9672 11.4858C67.6656 10.5071 67.5148 9.43608 67.5148 8.27273ZM71.9847 13V3.54545H75.1793C75.921 3.54545 76.5273 3.67933 76.9982 3.94709C77.4722 4.21177 77.823 4.57031 78.0508 5.02273C78.2785 5.47514 78.3924 5.97988 78.3924 6.53693C78.3924 7.09399 78.2785 7.60026 78.0508 8.05575C77.8261 8.51125 77.4783 8.87441 77.0075 9.14524C76.5366 9.413 75.9334 9.54688 75.1978 9.54688H72.908V8.53125H75.1609C75.6687 8.53125 76.0765 8.44354 76.3842 8.26811C76.692 8.09268 76.9151 7.85571 77.0536 7.55717C77.1952 7.25556 77.266 6.91548 77.266 6.53693C77.266 6.15838 77.1952 5.81984 77.0536 5.52131C76.9151 5.22277 76.6905 4.98887 76.3796 4.8196C76.0688 4.64725 75.6564 4.56108 75.1424 4.56108H73.1296V13H71.9847ZM82.1756 13.1662C81.7263 13.1662 81.3185 13.0816 80.9522 12.9123C80.586 12.7399 80.2952 12.4922 80.0797 12.169C79.8643 11.8428 79.7566 11.4489 79.7566 10.9872C79.7566 10.581 79.8366 10.2517 79.9966 9.99929C80.1567 9.74384 80.3706 9.5438 80.6383 9.39915C80.9061 9.2545 81.2015 9.14678 81.5247 9.07599C81.8509 9.00213 82.1787 8.94366 82.508 8.90057C82.9389 8.84517 83.2882 8.80362 83.5559 8.77592C83.8268 8.74515 84.0237 8.69437 84.1468 8.62358C84.273 8.55279 84.3361 8.42969 84.3361 8.25426V8.21733C84.3361 7.76184 84.2115 7.40791 83.9622 7.15554C83.716 6.90317 83.342 6.77699 82.8404 6.77699C82.3203 6.77699 81.9125 6.89086 81.617 7.11861C81.3216 7.34635 81.1138 7.58949 80.9938 7.84801L79.9597 7.47869C80.1444 7.04782 80.3906 6.71236 80.6983 6.4723C81.0092 6.22917 81.3477 6.0599 81.714 5.96449C82.0833 5.866 82.4464 5.81676 82.8034 5.81676C83.0312 5.81676 83.2928 5.84446 83.5882 5.89986C83.8868 5.95218 84.1745 6.06143 84.4515 6.22763C84.7316 6.39382 84.964 6.64465 85.1486 6.98011C85.3333 7.31558 85.4256 7.76491 85.4256 8.32812V13H84.3361V12.0398H84.2807C84.2069 12.1937 84.0837 12.3583 83.9114 12.5337C83.7391 12.7092 83.5098 12.8584 83.2235 12.9815C82.9373 13.1046 82.588 13.1662 82.1756 13.1662ZM82.3418 12.1875C82.7727 12.1875 83.1358 12.1029 83.4313 11.9336C83.7298 11.7643 83.9545 11.5458 84.1053 11.2781C84.2592 11.0103 84.3361 10.7287 84.3361 10.4332V9.43608C84.29 9.49148 84.1884 9.54226 84.0314 9.58842C83.8775 9.63151 83.699 9.66998 83.4959 9.70383C83.2959 9.73461 83.1004 9.76231 82.9096 9.78693C82.7219 9.80848 82.5695 9.82694 82.4526 9.84233C82.1694 9.87926 81.9048 9.93928 81.6586 10.0224C81.4154 10.1024 81.2185 10.224 81.0676 10.3871C80.9199 10.5471 80.8461 10.7656 80.8461 11.0426C80.8461 11.4212 80.9861 11.7074 81.2662 11.9013C81.5493 12.0921 81.9078 12.1875 82.3418 12.1875ZM92.4369 7.49716L91.4582 7.77415C91.3966 7.61103 91.3058 7.45253 91.1858 7.29865C91.0689 7.14169 90.9088 7.01243 90.7057 6.91087C90.5026 6.8093 90.2425 6.75852 89.9255 6.75852C89.4916 6.75852 89.1299 6.85855 88.8406 7.05859C88.5544 7.25556 88.4113 7.50639 88.4113 7.81108C88.4113 8.08191 88.5098 8.29581 88.7068 8.45277C88.9037 8.60973 89.2115 8.74053 89.6301 8.84517L90.6826 9.10369C91.3166 9.25758 91.789 9.49302 92.0999 9.81001C92.4107 10.1239 92.5661 10.5286 92.5661 11.0241C92.5661 11.4304 92.4492 11.7936 92.2153 12.1136C91.9845 12.4337 91.6613 12.6861 91.2458 12.8707C90.8303 13.0554 90.3472 13.1477 89.7963 13.1477C89.073 13.1477 88.4744 12.9908 88.0004 12.6768C87.5265 12.3629 87.2264 11.9044 87.1002 11.3011L88.1343 11.0426C88.2328 11.4242 88.419 11.7105 88.6929 11.9013C88.9699 12.0921 89.3315 12.1875 89.7778 12.1875C90.2856 12.1875 90.6888 12.0798 90.9873 11.8643C91.2889 11.6458 91.4397 11.3842 91.4397 11.0795C91.4397 10.8333 91.3535 10.6271 91.1812 10.4609C91.0088 10.2917 90.7442 10.1655 90.3872 10.0824L89.2053 9.8054C88.556 9.65152 88.0789 9.413 87.7742 9.08984C87.4726 8.76361 87.3218 8.35582 87.3218 7.86648C87.3218 7.46638 87.4342 7.11245 87.6588 6.80469C87.8866 6.49692 88.1959 6.25533 88.5867 6.0799C88.9807 5.90447 89.4269 5.81676 89.9255 5.81676C90.6272 5.81676 91.1781 5.97064 91.5782 6.27841C91.9814 6.58617 92.2676 6.99242 92.4369 7.49716ZM99.2289 7.49716L98.2502 7.77415C98.1886 7.61103 98.0978 7.45253 97.9778 7.29865C97.8609 7.14169 97.7008 7.01243 97.4977 6.91087C97.2946 6.8093 97.0345 6.75852 96.7175 6.75852C96.2836 6.75852 95.9219 6.85855 95.6326 7.05859C95.3464 7.25556 95.2033 7.50639 95.2033 7.81108C95.2033 8.08191 95.3018 8.29581 95.4988 8.45277C95.6957 8.60973 96.0035 8.74053 96.4221 8.84517L97.4746 9.10369C98.1086 9.25758 98.581 9.49302 98.8919 9.81001C99.2027 10.1239 99.3581 10.5286 99.3581 11.0241C99.3581 11.4304 99.2412 11.7936 99.0073 12.1136C98.7765 12.4337 98.4533 12.6861 98.0378 12.8707C97.6223 13.0554 97.1391 13.1477 96.5882 13.1477C95.865 13.1477 95.2664 12.9908 94.7924 12.6768C94.3185 12.3629 94.0184 11.9044 93.8922 11.3011L94.9263 11.0426C95.0248 11.4242 95.211 11.7105 95.4849 11.9013C95.7619 12.0921 96.1235 12.1875 96.5698 12.1875C97.0776 12.1875 97.4808 12.0798 97.7793 11.8643C98.0809 11.6458 98.2317 11.3842 98.2317 11.0795C98.2317 10.8333 98.1455 10.6271 97.9732 10.4609C97.8008 10.2917 97.5362 10.1655 97.1792 10.0824L95.9973 9.8054C95.348 9.65152 94.8709 9.413 94.5662 9.08984C94.2646 8.76361 94.1138 8.35582 94.1138 7.86648C94.1138 7.46638 94.2261 7.11245 94.4508 6.80469C94.6786 6.49692 94.9879 6.25533 95.3787 6.0799C95.7727 5.90447 96.2189 5.81676 96.7175 5.81676C97.4192 5.81676 97.9701 5.97064 98.3702 6.27841C98.7734 6.58617 99.0596 6.99242 99.2289 7.49716ZM102.605 13L100.444 5.90909H101.589L103.122 11.3381H103.196L104.71 5.90909H105.873L107.369 11.3196H107.443L108.975 5.90909H110.12L107.96 13H106.889L105.338 7.55256H105.227L103.676 13H102.605ZM114.2 13.1477C113.56 13.1477 112.998 12.9954 112.515 12.6907C112.035 12.386 111.66 11.9598 111.389 11.4119C111.121 10.8641 110.987 10.224 110.987 9.49148C110.987 8.75284 111.121 8.10807 111.389 7.55717C111.66 7.00627 112.035 6.57848 112.515 6.27379C112.998 5.96911 113.56 5.81676 114.2 5.81676C114.84 5.81676 115.4 5.96911 115.881 6.27379C116.364 6.57848 116.739 7.00627 117.007 7.55717C117.278 8.10807 117.413 8.75284 117.413 9.49148C117.413 10.224 117.278 10.8641 117.007 11.4119C116.739 11.9598 116.364 12.386 115.881 12.6907C115.4 12.9954 114.84 13.1477 114.2 13.1477ZM114.2 12.169C114.686 12.169 115.086 12.0444 115.4 11.7951C115.714 11.5458 115.947 11.218 116.097 10.8118C116.248 10.4055 116.324 9.96544 116.324 9.49148C116.324 9.01752 116.248 8.57588 116.097 8.16655C115.947 7.75722 115.714 7.42637 115.4 7.17401C115.086 6.92164 114.686 6.79545 114.2 6.79545C113.714 6.79545 113.314 6.92164 113 7.17401C112.686 7.42637 112.454 7.75722 112.303 8.16655C112.152 8.57588 112.077 9.01752 112.077 9.49148C112.077 9.96544 112.152 10.4055 112.303 10.8118C112.454 11.218 112.686 11.5458 113 11.7951C113.314 12.0444 113.714 12.169 114.2 12.169ZM119.076 13V5.90909H120.129V6.98011H120.203C120.332 6.62926 120.566 6.34458 120.904 6.12606C121.243 5.90755 121.625 5.79829 122.049 5.79829C122.129 5.79829 122.229 5.79983 122.349 5.80291C122.469 5.80599 122.56 5.81061 122.622 5.81676V6.92472C122.585 6.91548 122.5 6.90163 122.368 6.88317C122.239 6.86162 122.102 6.85085 121.957 6.85085C121.612 6.85085 121.304 6.92318 121.034 7.06783C120.766 7.2094 120.554 7.40637 120.397 7.65874C120.243 7.90803 120.166 8.19271 120.166 8.51278V13H119.076ZM126.375 13.1477C125.784 13.1477 125.262 12.9985 124.81 12.6999C124.358 12.3983 124.004 11.9736 123.748 11.4258C123.493 10.8749 123.365 10.224 123.365 9.47301C123.365 8.72822 123.493 8.08191 123.748 7.53409C124.004 6.98627 124.359 6.56309 124.815 6.26456C125.27 5.96603 125.796 5.81676 126.393 5.81676C126.855 5.81676 127.22 5.8937 127.487 6.04759C127.758 6.19839 127.965 6.37074 128.106 6.56463C128.251 6.75544 128.363 6.91241 128.443 7.03551H128.535V3.54545H129.625V13H128.572V11.9105H128.443C128.363 12.0398 128.249 12.2029 128.101 12.3999C127.954 12.5937 127.743 12.7676 127.469 12.9215C127.195 13.0723 126.83 13.1477 126.375 13.1477ZM126.523 12.169C126.96 12.169 127.329 12.0552 127.631 11.8274C127.932 11.5966 128.161 11.2781 128.318 10.8718C128.475 10.4625 128.554 9.99006 128.554 9.45455C128.554 8.92519 128.477 8.462 128.323 8.06499C128.169 7.66489 127.941 7.35405 127.64 7.13246C127.338 6.90779 126.966 6.79545 126.523 6.79545C126.061 6.79545 125.676 6.91394 125.369 7.15092C125.064 7.38482 124.835 7.70336 124.681 8.10653C124.53 8.50663 124.454 8.95597 124.454 9.45455C124.454 9.95928 124.531 10.4179 124.685 10.8303C124.842 11.2396 125.073 11.5658 125.378 11.8089C125.686 12.049 126.067 12.169 126.523 12.169ZM134.098 9.01136C134.098 10.1747 133.946 11.2457 133.641 12.2244C133.34 13.2 132.907 14.0987 132.344 14.9205H131.384C131.605 14.6158 131.812 14.2403 132.002 13.794C132.196 13.3509 132.366 12.8646 132.51 12.3352C132.655 11.8028 132.767 11.2534 132.847 10.6871C132.93 10.1178 132.972 9.55919 132.972 9.01136C132.972 8.27888 132.901 7.53563 132.759 6.7816C132.618 6.02758 132.427 5.32741 132.187 4.68111C131.947 4.0348 131.679 3.50852 131.384 3.10227H132.344C132.907 3.92401 133.34 4.82422 133.641 5.80291C133.946 6.77853 134.098 7.84801 134.098 9.01136Z" fill="#252525"/>
<g clip-path="url(#clip0_41_311)">
<rect y="21" width="325" height="45" rx="5" fill="white"/>
<path d="M18.4545 43.9091L18.5455 41.4091L16.4318 42.75L15.8864 41.7955L18.1136 40.6364L15.8864 39.4773L16.4318 38.5227L18.5455 39.8636L18.4545 37.3636H19.5455L19.4545 39.8636L21.5682 38.5227L22.1136 39.4773L19.8864 40.6364L22.1136 41.7955L21.5682 42.75L19.4545 41.4091L19.5455 43.9091H18.4545ZM26.4545 43.9091L26.5455 41.4091L24.4318 42.75L23.8864 41.7955L26.1136 40.6364L23.8864 39.4773L24.4318 38.5227L26.5455 39.8636L26.4545 37.3636H27.5455L27.4545 39.8636L29.5682 38.5227L30.1136 39.4773L27.8864 40.6364L30.1136 41.7955L29.5682 42.75L27.4545 41.4091L27.5455 43.9091H26.4545ZM34.4545 43.9091L34.5455 41.4091L32.4318 42.75L31.8864 41.7955L34.1136 40.6364L31.8864 39.4773L32.4318 38.5227L34.5455 39.8636L34.4545 37.3636H35.5455L35.4545 39.8636L37.5682 38.5227L38.1136 39.4773L35.8864 40.6364L38.1136 41.7955L37.5682 42.75L35.4545 41.4091L35.5455 43.9091H34.4545ZM42.4545 43.9091L42.5455 41.4091L40.4318 42.75L39.8864 41.7955L42.1136 40.6364L39.8864 39.4773L40.4318 38.5227L42.5455 39.8636L42.4545 37.3636H43.5455L43.4545 39.8636L45.5682 38.5227L46.1136 39.4773L43.8864 40.6364L46.1136 41.7955L45.5682 42.75L43.4545 41.4091L43.5455 43.9091H42.4545ZM50.4545 43.9091L50.5455 41.4091L48.4318 42.75L47.8864 41.7955L50.1136 40.6364L47.8864 39.4773L48.4318 38.5227L50.5455 39.8636L50.4545 37.3636H51.5455L51.4545 39.8636L53.5682 38.5227L54.1136 39.4773L51.8864 40.6364L54.1136 41.7955L53.5682 42.75L51.4545 41.4091L51.5455 43.9091H50.4545ZM58.4545 43.9091L58.5455 41.4091L56.4318 42.75L55.8864 41.7955L58.1136 40.6364L55.8864 39.4773L56.4318 38.5227L58.5455 39.8636L58.4545 37.3636H59.5455L59.4545 39.8636L61.5682 38.5227L62.1136 39.4773L59.8864 40.6364L62.1136 41.7955L61.5682 42.75L59.4545 41.4091L59.5455 43.9091H58.4545ZM66.4545 43.9091L66.5455 41.4091L64.4318 42.75L63.8864 41.7955L66.1136 40.6364L63.8864 39.4773L64.4318 38.5227L66.5455 39.8636L66.4545 37.3636H67.5455L67.4545 39.8636L69.5682 38.5227L70.1136 39.4773L67.8864 40.6364L70.1136 41.7955L69.5682 42.75L67.4545 41.4091L67.5455 43.9091H66.4545ZM74.4545 43.9091L74.5455 41.4091L72.4318 42.75L71.8864 41.7955L74.1136 40.6364L71.8864 39.4773L72.4318 38.5227L74.5455 39.8636L74.4545 37.3636H75.5455L75.4545 39.8636L77.5682 38.5227L78.1136 39.4773L75.8864 40.6364L78.1136 41.7955L77.5682 42.75L75.4545 41.4091L75.5455 43.9091H74.4545Z" fill="#7C97A1"/>
<path d="M300 44.5C300 45.5609 299.579 46.5783 298.828 47.3284C298.078 48.0786 297.061 48.5 296 48.5C294.939 48.5 293.922 48.0786 293.172 47.3284C292.421 46.5783 292 45.5609 292 44.5C292 43.4391 292.421 42.4217 293.172 41.6716C293.922 40.9214 294.939 40.5 296 40.5C297.061 40.5 298.078 40.9214 298.828 41.6716C299.579 42.4217 300 43.4391 300 44.5Z" stroke="#7C97A1" stroke-width="2" stroke-linecap="round" stroke-linejoin="round"/>
<path d="M285 44.5C286.456 39.8634 290.789 36.5 295.905 36.5C301.023 36.5 305.354 39.8634 306.81 44.5C305.354 49.1366 301.023 52.5 295.905 52.5C290.789 52.5 286.456 49.1366 285 44.5Z" stroke="#7C97A1" stroke-width="2" stroke-linecap="round" stroke-linejoin="round"/>
</g>
<rect x="0.5" y="21.5" width="324" height="44" rx="4.5" stroke="#7C97A1"/>
<defs>
<clipPath id="clip0_41_311">
<rect y="21" width="325" height="45" rx="5" fill="white"/>
</clipPath>
</defs>
</svg>
